<svg width="32" height="32" viewBox="0 0 32 32" fill="none" xmlns="http://www.w3.org/2000/svg">
  <!-- Background Circle -->
  <circle cx="16" cy="16" r="15" fill="url(#favicon-grad)"/>
  
  <!-- Star/AI symbol -->
  <path d="M16 5L17.5 10L22.5 10L18.5 13.5L20 18.5L16 15L12 18.5L13.5 13.5L9.5 10L14.5 10L16 5Z" fill="white"/>
  
  <!-- Chat bubble -->
  <path d="M9 17C9 15.5 10 14.5 11.5 14.5H20.5C22 14.5 23 15.5 23 17V22C23 23.5 22 24.5 20.5 24.5H14L10.5 27.5V24.5H11.5C10 24.5 9 23.5 9 22V17Z" fill="white" opacity="0.85"/>
  
  <!-- Dots -->
  <circle cx="13" cy="19.5" r="1.2" fill="#6366F1"/>
  <circle cx="16" cy="19.5" r="1.2" fill="#6366F1"/>
  <circle cx="19" cy="19.5" r="1.2" fill="#6366F1"/>
  
  <defs>
    <linearGradient id="favicon-grad" x1="0%" y1="0%" x2="100%" y2="100%">
      <stop offset="0%" style="stop-color:#6366F1"/>
      <stop offset="100%" style="stop-color:#8B5CF6"/>
    </linearGradient>
  </defs>
</svg>
