<svg width="180" height="40" viewBox="0 0 180 40" fill="none" xmlns="http://www.w3.org/2000/svg">
  <!-- Icon -->
  <circle cx="20" cy="20" r="18" fill="url(#logo-text-grad)"/>
  <path d="M20 7L21.8 13L28 13L23 17L25 23L20 19L15 23L17 17L12 13L18.2 13L20 7Z" fill="white"/>
  <path d="M11 18C11 16.5 12 15.5 13.5 15.5H26.5C28 15.5 29 16.5 29 18V26C29 27.5 28 28.5 26.5 28.5H18L13.5 32V28.5H13.5C12 28.5 11 27.5 11 26V18Z" fill="white" opacity="0.85"/>
  <circle cx="16" cy="22" r="1.5" fill="#6366F1"/>
  <circle cx="20" cy="22" r="1.5" fill="#6366F1"/>
  <circle cx="24" cy="22" r="1.5" fill="#6366F1"/>
  
  <!-- Text LAR -->
  <text x="48" y="28" font-family="system-ui, -apple-system, sans-serif" font-size="24" font-weight="700" fill="#1F2937">LAR</text>
  
  <!-- Tagline -->
  <text x="90" y="28" font-family="system-ui, -apple-system, sans-serif" font-size="11" fill="#6B7280">AI Danh Tiếng Việt</text>
  
  <defs>
    <linearGradient id="logo-text-grad" x1="0%" y1="0%" x2="100%" y2="100%">
      <stop offset="0%" style="stop-color:#6366F1"/>
      <stop offset="100%" style="stop-color:#8B5CF6"/>
    </linearGradient>
  </defs>
</svg>
